<?xml version="1.0" encoding="utf-8"?>
<svg xmlns="http://www.w3.org/2000/svg" viewBox="0 0 28 28" fill="none">
<mask id="mask0_9_716" style="mask-type:alpha" maskUnits="userSpaceOnUse" x="0" y="0" width="28" height="28">
<path d="M14 28C21.732 28 28 21.732 28 14C28 6.26801 21.732 0 14 0C6.26801 0 0 6.26801 0 14C0 21.732 6.26801 28 14 28Z" fill="#0052B4"/>
</mask>
<g mask="url(#mask0_9_716)">
<mask id="mask1_9_716" style="mask-type:alpha" maskUnits="userSpaceOnUse" x="-5" y="0" width="38" height="28">
<path d="M-5 0H33V28H-5V0Z" fill="white"/>
</mask>
<g mask="url(#mask1_9_716)">
<path fill-rule="evenodd" clip-rule="evenodd" d="M-5 0V28H33V0H-5Z" fill="white"/>
<path d="M-5 0H33V28H-5V0Z" fill="white"/>
<path fill-rule="evenodd" clip-rule="evenodd" d="M18.4861 -2.33331H9.51396V9.33336H-7.34229V18.6667H9.51396V30.3334H18.4861V18.6667H35.4078V9.33336H18.4861V-2.33331Z" fill="white"/>
<path fill-rule="evenodd" clip-rule="evenodd" d="M-5 0V28H33V0H-5Z" fill="#2E42A5"/>
<path d="M-9.23145 25.9996L-0.869438 29.4739L33.1895 3.77738L37.6003 -1.38568L28.6584 -2.54694L14.7665 8.52645L3.58499 15.9874L-9.23145 25.9996Z" fill="white"/>
<path d="M-8.08643 28.4339L-3.82637 30.4501L36.0167 -1.86536H30.0351L-8.08643 28.4339Z" fill="#F50100"/>
<path d="M37.2314 25.9996L28.8694 29.4739L-5.18957 3.77738L-9.60034 -1.38568L-0.658372 -2.54694L13.2334 8.52645L24.4149 15.9874L37.2314 25.9996Z" fill="white"/>
<path d="M36.9455 27.7467L32.6854 29.7629L15.7199 15.9271L10.6898 14.3811L-10.0254 -1.36792H-4.04378L16.6599 14.0073L22.1592 15.861L36.9455 27.7467Z" fill="#F50100"/>
<path fill-rule="evenodd" clip-rule="evenodd" d="M18.4861 -2.33331H9.51396V9.33336H-7.34229V18.6667H9.51396V30.3334H18.4861V18.6667H35.4078V9.33336H18.4861V-2.33331Z" fill="#F50100"/>
<path d="M9.5142 -2.33329V-4.66663H9.42902V-2.33329H9.5142ZM18.4864 -2.33329H18.5715V-4.66663H18.4864V-2.33329ZM9.5142 9.33338V11.6667H11.8892V9.33338H9.5142ZM-7.34204 9.33338V9.24969H-9.71704V9.33338H-7.34204ZM-7.34204 18.6667H-9.71704V18.7504H-7.34204V18.6667ZM9.5142 18.6667H11.8892V16.3334H9.5142V18.6667ZM9.5142 30.3334H9.42902V32.6667H9.5142V30.3334ZM18.4864 30.3334V32.6667L18.5715 30.3334H18.4864ZM18.4864 18.6667V16.3334H16.1114V18.6667H18.4864ZM35.408 18.6667V18.7504H37.783V18.6667H35.408ZM35.408 9.33338H37.783V9.24969H35.408V9.33338ZM18.4864 9.33338H16.1114V11.6667H18.4864V9.33338ZM9.5142 4.29153e-05H18.4864V-4.66663H9.5142V4.29153e-05ZM11.8892 9.33338V-2.33329H9.42902V9.33338H11.8892ZM-7.34204 11.6667H9.5142V9.24969H-7.34204V11.6667ZM-4.96705 18.6667V9.33338H-9.71704V18.6667H-4.96705ZM9.5142 16.3334H-7.34204V18.7504H9.5142V16.3334ZM11.8892 30.3334V18.6667H9.42902V30.3334H11.8892ZM18.4864 28.0001H9.5142V32.6667H18.4864V28.0001ZM16.1114 18.6667V30.3334H18.5715V18.6667H16.1114ZM35.408 16.3334H18.4864V18.7504H35.408V16.3334ZM33.033 9.33338V18.6667H37.783V9.33338H33.033ZM18.4864 11.6667H35.408V9.24969H18.4864V11.6667ZM16.1114 -2.33329V9.33338H18.5715V-2.33329H16.1114Z" fill="white"/>
</g>
</g>
</svg>