<?xml version="1.0" encoding="utf-8"?>
<svg xmlns="http://www.w3.org/2000/svg" xmlns:xlink="http://www.w3.org/1999/xlink" version="1.1" x="0px" y="0px" viewBox="0 0 28 28" style="enable-background:new 0 0 28 28;">
<style type="text/css">
	.st0{clip-path:url(#SVGID_00000127046116889441099810000002688292602588051629_);}
	.st1{fill:url(#SVGID_00000019641336518161641920000016480575992498627214_);}
	.st2{fill:#F50100;}
	.st3{fill:url(#SVGID_00000010296755355170314290000015985003498397185681_);}
</style>
<g id="Layer_2">
</g>
<g id="Layer_1">
	<g>
		<defs>
			<ellipse id="SVGID_1_" cx="14" cy="14" rx="14" ry="14"/>
		</defs>
		<clipPath id="SVGID_00000060009277243555094200000010697080949045303195_">
			<use xlink:href="#SVGID_1_" style="overflow:visible;"/>
		</clipPath>
		<g style="clip-path:url(#SVGID_00000060009277243555094200000010697080949045303195_);">
			
				<radialGradient id="SVGID_00000060006595184428526170000001161106469538972817_" cx="14.7277" cy="14.2822" r="14.8404" gradientUnits="userSpaceOnUse">
				<stop offset="0" style="stop-color:#CECECE"/>
				<stop offset="1" style="stop-color:#FCFCFC"/>
			</radialGradient>
			<rect x="-0.7" style="fill:url(#SVGID_00000060006595184428526170000001161106469538972817_);" width="30.8" height="28.6"/>
			<path class="st2" d="M5.1,8h4.6c0.4,0,0.8-0.4,0.8-0.8v0c0-0.4-0.4-0.8-0.8-0.8H5.1c-0.4,0-0.8,0.4-0.8,0.8v0&#xD;&#xA;				C4.2,7.6,4.6,8,5.1,8z"/>
			<path class="st2" d="M6.6,5v4.3c0,0.5,0.4,0.8,0.8,0.8h0c0.5,0,0.8-0.4,0.8-0.8V5c0-0.5-0.4-0.8-0.8-0.8h0C7,4.2,6.6,4.6,6.6,5z"/>
			<path class="st2" d="M18.6,8h4.6C23.6,8,24,7.6,24,7.2v0c0-0.4-0.4-0.8-0.8-0.8h-4.6c-0.4,0-0.8,0.4-0.8,0.8v0&#xD;&#xA;				C17.7,7.6,18.1,8,18.6,8z"/>
			<path class="st2" d="M20.1,5v4.3c0,0.5,0.4,0.8,0.8,0.8h0c0.5,0,0.8-0.4,0.8-0.8V5c0-0.5-0.4-0.8-0.8-0.8h0&#xD;&#xA;				C20.5,4.2,20.1,4.6,20.1,5z"/>
			<path class="st2" d="M5.1,21.6h4.6c0.4,0,0.8-0.4,0.8-0.8v0c0-0.4-0.4-0.8-0.8-0.8H5.1c-0.4,0-0.8,0.4-0.8,0.8v0&#xD;&#xA;				C4.2,21.2,4.6,21.6,5.1,21.6z"/>
			<path class="st2" d="M6.6,18.7V23c0,0.5,0.4,0.8,0.8,0.8h0c0.5,0,0.8-0.4,0.8-0.8v-4.3c0-0.5-0.4-0.8-0.8-0.8h0&#xD;&#xA;				C7,17.8,6.6,18.2,6.6,18.7z"/>
			<path class="st2" d="M18.6,21.6h4.6c0.4,0,0.8-0.4,0.8-0.8v0c0-0.4-0.4-0.8-0.8-0.8h-4.6c-0.4,0-0.8,0.4-0.8,0.8v0&#xD;&#xA;				C17.7,21.2,18.1,21.6,18.6,21.6z"/>
			<path class="st2" d="M20.1,18.7V23c0,0.5,0.4,0.8,0.8,0.8h0c0.5,0,0.8-0.4,0.8-0.8v-4.3c0-0.5-0.4-0.8-0.8-0.8h0&#xD;&#xA;				C20.5,17.8,20.1,18.2,20.1,18.7z"/>
			
				<radialGradient id="SVGID_00000145748259415711426590000015364325823447570827_" cx="14.0377" cy="13.9624" r="17.568" gradientUnits="userSpaceOnUse">
				<stop offset="0" style="stop-color:#FF0000"/>
				<stop offset="1" style="stop-color:#F50100"/>
			</radialGradient>
			<polygon style="fill:url(#SVGID_00000145748259415711426590000015364325823447570827_);" points="16.8,11.5 16.8,11.4 16.8,11.4 &#xD;&#xA;				16.8,-3.6 11.8,-3.6 11.8,11.4 11.7,11.4 -3.5,11.4 -3.5,16.4 11.7,16.4 11.7,16.5 11.7,31.6 16.7,31.6 16.7,16.5 16.8,16.5 &#xD;&#xA;				31.6,16.5 31.6,11.5"/>
		</g>
	</g>
	
		<image style="display:none;overflow:visible;" width="301" height="300" transform="matrix(9.734669e-02 0 0 9.734669e-02 -0.6507 -0.6396)" xlink:href="dsdsdsd.PNG">
	</image>
</g>
</svg>