<?xml version="1.0" encoding="UTF-8"?>
<svg id="Layer_2" data-name="Layer 2" xmlns="http://www.w3.org/2000/svg" viewBox="0 0 320.84 215.45">
  <defs>
    <style>
      .cls-1 {
        fill: #fff;
      }

      .cls-2 {
        fill: #02aef2;
      }

      .cls-3 {
        fill: #17a5e5;
      }
    </style>
  </defs>
  <g id="Layer_1-2" data-name="Layer 1">
    <g>
      <path class="cls-1" d="M132.64,22.29s.06-3.82,.14-4.82l-6.15-.12,.26-10.2h9.73c0,3.74,.11,11.23-.03,15.01-.12,2.83,1.07,4.06,3.8,4.83,17.94,5.05,38.04,11.18,55.88,16.56,1.44,.44,.62,4.98,.33,5.32l7.56,1.92c-.03-.53,.29-7.32,.41-8.64,.3-3.39-.98-5.08-4.54-5.74-5.06-.94-10.02-2.46-14.98-3.89-4.93-1.43-9.81-3.07-14.71-4.62l-27.4-6.45V.27l-21.15-.27-.15,21.72,11.02,.57Z"/>
      <path class="cls-2" d="M261.31,55.72c-1.54,0-3.17-.05-4.8,.01-15.89,.59-31.6-.62-47.19-3.91-2.8-.59-13.12-3.45-13.21-3.35-2.88-.92-5.76-1.83-8.65-2.75-2.88-.92-5.76-1.84-8.64-2.77-4.8-1.56-9.61-3.1-14.41-4.65-8.01-2.58-16.01-5.18-23.99-7.86-1.86-.63-15.34-2.55-15.34-2.55,0,0-3.17-.38-4.76-.35-10.86,.2-20.44,4.11-29.83,9-4.51,2.35-5.54,5.71-3.67,10.78,1.48-.53,2.59-.86,3.65-1.32,17.75-7.67,35.67-7.21,53.64-.93,11.31,3.94,22.55,8.12,33.83,12.15,24.58,8.79,49.9,11.52,75.8,9.07,7.22-.68,8.5-2.64,7.57-10.57Z"/>
      <path class="cls-1" d="M283.2,154.21c12.71-27.91,25.11-55.15,37.64-82.67-1.08-.23-1.71-.55-2.29-.47-18.48,2.34-36.96,4.7-55.43,7.17-1.12,.15-2.8,1.05-3.06,1.94-1.9,6.44-6.86,10.34-12.06,13.43-10.57,6.28-21.37,12.25-32.43,17.61-27.01,13.09-55.33,21.92-85.33,24.86l.16-.1c-8.03,1.38-16.09,2.58-24.08,4.18-18.12,3.63-36.14,7.84-54.33,11.04-10.07,1.77-20.42,1.97-30.65,2.88,.73,1.47,2.12,2.71,3.48,2.67,10.15-.3,20.4-.06,30.41-1.48,26.55-3.77,52.94-8.64,79.48-12.42,39.66-5.65,76.42-19.37,111-39.14,5.63-3.22,11.12-7.79,14.74-13.07,3.56-5.19,7.61-7.24,13.25-7.74,.82-.07,1.63-.35,2.45-.47,11.15-1.58,22.3-3.14,34.83-4.91-4.74,10.62-8.78,19.86-13.06,28.99-.51,1.09-2.19,1.89-3.49,2.32-5.69,1.88-11.45,3.56-17.17,5.33-29.26,9.01-58.52,18.04-87.79,27.03-1.98,.61-4.04,.94-6.06,1.4-.04-.32-4.02,.87-4.02,.87-1.21,.43-1.97,.75-2.75,.96-32.08,8.87-65.1,12.09-97.95,16.29-15.7,2.01-31.42,3.77-47.13,5.72-1.85,.23-3.63,.92-5.45,1.4,45.49-2.28,90.98-4.61,135.24-14.89,44.07-10.23,87.48-23.28,130.61-34.94-6.78,15.83-13.9,32.46-21.24,49.59h6.81c1.53-2.87,3.3-6.24,5.48-6.52,8.3-1.08,16.76-.83,25.13-1.42,4.28-.3,9.11-.23,11.5-7.18-12.32,3.5-23.85,4.73-36.46,1.77Z"/>
      <path class="cls-3" d="M277.3,168.04s.24-.45,.25-.47h-6.81s-.19,.44-.2,.46c-5.65-1.68-11.3-3.07-16.74-5.05-14.93-5.43-29.5-5.69-44.1,1.42-12.03,5.86-24.71,9.14-38.25,6.61-6.05-1.13-12.01-2.86-18.1-3.71-5.7-.79-11.76-1.96-17.23-.86-12,2.41-23.76,6.06-35.6,9.25,7.86-1.07,16.05-1.2,23.36-3.81,12.53-4.47,24.32-4.42,36.45,.55,18.56,7.61,36.48,5.4,53.95-3.71,3.81-1.99,7.84-3.7,11.95-4.94,8.42-2.53,16.45,.48,24.53,2.39,10.2,2.41,20.32,5.21,30.63,7.04,7.39,1.31,13.98-1.39,19.19-6.82-7.39,3.49-14.91,4.39-23.28,1.65Z"/>
      <path class="cls-2" d="M42.75,111.29c-.09-.5-.25-.98-.25-1.47-.27-13.91-.28-13.95,12.52-19.42,12.39-5.29,24.6-11.11,37.29-15.57,18.5-6.51,36.92-5.06,55.12,2.37,12.15,4.96,24.47,9.71,37.07,13.33,18.26,5.26,36.9,4.31,55.45,.87,1.1-.2,2.22-.27,3.47,0-8.21,6.96-17.64,11.48-27.97,14.11-18.13,4.62-35.98,3.13-53.6-2.82-8.51-2.88-17.01-5.84-25.64-8.31-18.16-5.19-36.11-2.36-53.65,2.84-13.35,3.96-26.31,9.25-39.8,14.08Z"/>
      <path class="cls-3" d="M99.37,175.84c8.4,3.47,16.82,1.92,24.96-.55,10.4-3.16,20.37-2.29,30.33,1.42,14.23,5.3,28.69,9.23,43.9,4.75,5.56-1.63,11.25-3.52,16.17-6.47,11.15-6.67,22.06-5.2,33.62-1.4,10.09,3.31,20.5,5.74,30.9,7.94,4.22,.89,8.78,.15,12.99,.15-6.14,4.86-13.53,8.61-22.1,8.28-7.27-.28-14.63-1.28-21.7-2.99-10.91-2.64-21.24-2.68-31.64,2.23-15.41,7.26-31.2,8.23-47.63,2.65-5.93-2.01-12.79-2.53-19.07-1.98-15.85,1.39-31.32,.02-46.48-4.49-21.56-6.42-42.93-5.84-64.6-.23-10.9,2.82-22.22,4.06-33.36,5.92-1.6,.27-3.29,.04-5.66,.04,20.03-10.91,41.12-17.95,62.4-18.53,12.34-.33,24.75,2.16,37.13,3.38,0,0-.15-.11-.15-.11Z"/>
      <path class="cls-2" d="M258,73.03c-1.01,9.05-1.2,9.03-9.14,10.8-29.6,6.58-57.85,1.59-85.5-9.45-8.95-3.57-17.98-7.11-27.23-9.74-19.24-5.48-37.54-.98-55.49,6.26-6.75,2.72-13.69,4.97-21.37,7.73-.61-3.68-1.33-6.53-1.44-9.41-.04-1.08,1.12-2.79,2.14-3.22,12.88-5.42,25.69-11.04,38.8-15.86,15.89-5.85,31.75-3.96,47.4,1.66,15.97,5.74,31.81,11.9,48.03,16.82,19.17,5.82,39,6.47,58.91,4.72,1.6-.14,3.2-.21,4.88-.31Z"/>
      <path class="cls-2" d="M15.96,127.52c7.01-1.56,13.99-2.45,20.5-4.71,15.88-5.52,31.31-12.36,47.32-17.42,24.15-7.63,48.34-8.66,72.16,2.4,11.77,5.47,24.43,7.66,37.47,7.28,.82-.02,1.65,.09,2.47,.18,.11,.01,.19,.22,.68,.8-8.95,5.91-18.56,9.94-29.23,9.45-8.76-.4-17.64-1.6-26.13-3.76-32.29-8.18-62.73-2.15-92.47,10.82-6.4,2.79-12.82,5.68-19.48,7.67-7.82,2.34-8.98,1.34-11.37-6.36-.63-2.05-1.24-4.1-1.93-6.36Z"/>
      <path class="cls-3" d="M148.56,205.91c17.46-.08,34.91-.28,52.37-.56,4.96-.08,9.91-.54,15.09,.09-6.95,1.58-13.84,3.49-20.85,4.69-22.83,3.91-45.74,7.65-68.93,3.52-8.97-1.6-18.16-3.31-26.53-6.74-22.19-9.09-44.52-10.11-67.42-3.77-.88,.24-1.81,.29-1.82,.29,24.69-12.24,50.72-13.17,77.59-4.17,9.69,3.25,20.12,4.35,30.27,6.09"/>
      <path class="cls-2" d="M130.39,135.96c-16.44-1.35-31.95,3.5-47.74,6.83-14.63,3.08-29.44,5.28-44.2,7.68-2.12,.34-4.41-.37-6.62-.59-.19-.67-.39-1.34-.58-2.01,4.56-2.16,9.03-4.57,13.7-6.45,42.31-17.05,73.02-19.9,101.66-9.39-5.67,1.4-11.02,2.71-16.37,4.03,0,0,.15-.1,.15-.1Z"/>
    </g>
  </g>
</svg>