<?xml version="1.0" encoding="UTF-8"?>
<svg id="Layer_2" data-name="Layer 2" xmlns="http://www.w3.org/2000/svg" viewBox="0 0 320.84 286.65">
  <defs>
    <style>
      .cls-1 {
        fill: #fff;
      }

      .cls-2 {
        fill: #02aef2;
      }

      .cls-3 {
        fill: #17a5e5;
      }
    </style>
  </defs>
  <g id="Layer_1-2" data-name="Layer 1">
    <g>
      <path class="cls-1" d="M132.64,22.29s.06-3.82,.14-4.82l-6.15-.12,.26-10.2h9.73c0,3.74,.11,11.23-.03,15.01-.12,2.83,1.07,4.06,3.8,4.83,17.94,5.05,38.04,11.18,55.88,16.56,1.44,.44,.62,4.98,.33,5.32l7.56,1.92c-.03-.53,.29-7.32,.41-8.64,.3-3.39-.98-5.08-4.54-5.74-5.06-.94-10.02-2.46-14.98-3.89-4.93-1.43-9.81-3.07-14.71-4.62l-27.4-6.45V.27l-21.15-.27-.15,21.72,11.02,.57Z"/>
      <path class="cls-2" d="M261.31,55.72c-1.54,0-3.17-.05-4.8,.01-15.89,.59-31.6-.62-47.19-3.91-2.8-.59-13.12-3.45-13.21-3.35-2.88-.92-5.76-1.83-8.65-2.75-2.88-.92-5.76-1.84-8.64-2.77-4.8-1.56-9.61-3.1-14.41-4.65-8.01-2.58-16.01-5.18-23.99-7.86-1.86-.63-15.34-2.55-15.34-2.55,0,0-3.17-.38-4.76-.35-10.86,.2-20.44,4.11-29.83,9-4.51,2.35-5.54,5.71-3.67,10.78,1.48-.53,2.59-.86,3.65-1.32,17.75-7.67,35.67-7.21,53.64-.93,11.31,3.94,22.55,8.12,33.83,12.15,24.58,8.79,49.9,11.52,75.8,9.07,7.22-.68,8.5-2.64,7.57-10.57Z"/>
      <path class="cls-1" d="M283.2,154.21c12.71-27.91,25.11-55.15,37.64-82.67-1.08-.23-1.71-.55-2.29-.47-18.48,2.34-36.96,4.7-55.43,7.17-1.12,.15-2.8,1.05-3.06,1.94-1.9,6.44-6.86,10.34-12.06,13.43-10.57,6.28-21.37,12.25-32.43,17.61-27.01,13.09-55.33,21.92-85.33,24.86l.16-.1c-8.03,1.38-16.09,2.58-24.08,4.18-18.12,3.63-36.14,7.84-54.33,11.04-10.07,1.77-20.42,1.97-30.65,2.88,.73,1.47,2.12,2.71,3.48,2.67,10.15-.3,20.4-.06,30.41-1.48,26.55-3.77,52.94-8.64,79.48-12.42,39.66-5.65,76.42-19.37,111-39.14,5.63-3.22,11.12-7.79,14.74-13.07,3.56-5.19,7.61-7.24,13.25-7.74,.82-.07,1.63-.35,2.45-.47,11.15-1.58,22.3-3.14,34.83-4.91-4.74,10.62-8.78,19.86-13.06,28.99-.51,1.09-2.19,1.89-3.49,2.32-5.69,1.88-11.45,3.56-17.17,5.33-29.26,9.01-58.52,18.04-87.79,27.03-1.98,.61-4.04,.94-6.06,1.4-.04-.32-4.02,.87-4.02,.87-1.21,.43-1.97,.75-2.75,.96-32.08,8.87-65.1,12.09-97.95,16.29-15.7,2.01-31.42,3.77-47.13,5.72-1.85,.23-3.63,.92-5.45,1.4,45.49-2.28,90.98-4.61,135.24-14.89,44.07-10.23,87.48-23.28,130.61-34.94-6.78,15.83-13.9,32.46-21.24,49.59h6.81c1.53-2.87,3.3-6.24,5.48-6.52,8.3-1.08,16.76-.83,25.13-1.42,4.28-.3,9.11-.23,11.5-7.18-12.32,3.5-23.85,4.73-36.46,1.77Z"/>
      <path class="cls-3" d="M277.3,168.04s.24-.45,.25-.47h-6.81s-.19,.44-.2,.46c-5.65-1.68-11.3-3.07-16.74-5.05-14.93-5.43-29.5-5.69-44.1,1.42-12.03,5.86-24.71,9.14-38.25,6.61-6.05-1.13-12.01-2.86-18.1-3.71-5.7-.79-11.76-1.96-17.23-.86-12,2.41-23.76,6.06-35.6,9.25,7.86-1.07,16.05-1.2,23.36-3.81,12.53-4.47,24.32-4.42,36.45,.55,18.56,7.61,36.48,5.4,53.95-3.71,3.81-1.99,7.84-3.7,11.95-4.94,8.42-2.53,16.45,.48,24.53,2.39,10.2,2.41,20.32,5.21,30.63,7.04,7.39,1.31,13.98-1.39,19.19-6.82-7.39,3.49-14.91,4.39-23.28,1.65Z"/>
      <path class="cls-2" d="M42.75,111.29c-.09-.5-.25-.98-.25-1.47-.27-13.91-.28-13.95,12.52-19.42,12.39-5.29,24.6-11.11,37.29-15.57,18.5-6.51,36.92-5.06,55.12,2.37,12.15,4.96,24.47,9.71,37.07,13.33,18.26,5.26,36.9,4.31,55.45,.87,1.1-.2,2.22-.27,3.47,0-8.21,6.96-17.64,11.48-27.97,14.11-18.13,4.62-35.98,3.13-53.6-2.82-8.51-2.88-17.01-5.84-25.64-8.31-18.16-5.19-36.11-2.36-53.65,2.84-13.35,3.96-26.31,9.25-39.8,14.08Z"/>
      <path class="cls-3" d="M99.37,175.84c8.4,3.47,16.82,1.92,24.96-.55,10.4-3.16,20.37-2.29,30.33,1.42,14.23,5.3,28.69,9.23,43.9,4.75,5.56-1.63,11.25-3.52,16.17-6.47,11.15-6.67,22.06-5.2,33.62-1.4,10.09,3.31,20.5,5.74,30.9,7.94,4.22,.89,8.78,.15,12.99,.15-6.14,4.86-13.53,8.61-22.1,8.28-7.27-.28-14.63-1.28-21.7-2.99-10.91-2.64-21.24-2.68-31.64,2.23-15.41,7.26-31.2,8.23-47.63,2.65-5.93-2.01-12.79-2.53-19.07-1.98-15.85,1.39-31.32,.02-46.48-4.49-21.56-6.42-42.93-5.84-64.6-.23-10.9,2.82-22.22,4.06-33.36,5.92-1.6,.27-3.29,.04-5.66,.04,20.03-10.91,41.12-17.95,62.4-18.53,12.34-.33,24.75,2.16,37.13,3.38,0,0-.15-.11-.15-.11Z"/>
      <path class="cls-2" d="M258,73.03c-1.01,9.05-1.2,9.03-9.14,10.8-29.6,6.58-57.85,1.59-85.5-9.45-8.95-3.57-17.98-7.11-27.23-9.74-19.24-5.48-37.54-.98-55.49,6.26-6.75,2.72-13.69,4.97-21.37,7.73-.61-3.68-1.33-6.53-1.44-9.41-.04-1.08,1.12-2.79,2.14-3.22,12.88-5.42,25.69-11.04,38.8-15.86,15.89-5.85,31.75-3.96,47.4,1.66,15.97,5.74,31.81,11.9,48.03,16.82,19.17,5.82,39,6.47,58.91,4.72,1.6-.14,3.2-.21,4.88-.31Z"/>
      <path class="cls-2" d="M15.96,127.52c7.01-1.56,13.99-2.45,20.5-4.71,15.88-5.52,31.31-12.36,47.32-17.42,24.15-7.63,48.34-8.66,72.16,2.4,11.77,5.47,24.43,7.66,37.47,7.28,.82-.02,1.65,.09,2.47,.18,.11,.01,.19,.22,.68,.8-8.95,5.91-18.56,9.94-29.23,9.45-8.76-.4-17.64-1.6-26.13-3.76-32.29-8.18-62.73-2.15-92.47,10.82-6.4,2.79-12.82,5.68-19.48,7.67-7.82,2.34-8.98,1.34-11.37-6.36-.63-2.05-1.24-4.1-1.93-6.36Z"/>
      <path class="cls-3" d="M148.56,205.91c17.46-.08,34.91-.28,52.37-.56,4.96-.08,9.91-.54,15.09,.09-6.95,1.58-13.84,3.49-20.85,4.69-22.83,3.91-45.74,7.65-68.93,3.52-8.97-1.6-18.16-3.31-26.53-6.74-22.19-9.09-44.52-10.11-67.42-3.77-.88,.24-1.81,.29-1.82,.29,24.69-12.24,50.72-13.17,77.59-4.17,9.69,3.25,20.12,4.35,30.27,6.09"/>
      <path class="cls-2" d="M130.39,135.96c-16.44-1.35-31.95,3.5-47.74,6.83-14.63,3.08-29.44,5.28-44.2,7.68-2.12,.34-4.41-.37-6.62-.59-.19-.67-.39-1.34-.58-2.01,4.56-2.16,9.03-4.57,13.7-6.45,42.31-17.05,73.02-19.9,101.66-9.39-5.67,1.4-11.02,2.71-16.37,4.03,0,0,.15-.1,.15-.1Z"/>
    </g>
    <g>
      <path class="cls-1" d="M61.46,242.8c-1.01-1.21-.73-1.64,.11-2.49,3.4-3.47,2.79-7.5,1.09-11.34-1.88-4.23-5.95-5.41-10.11-5.58-5.36-.21-10.74,.15-16.1,.09-2.34-.03-3.16,.76-3.08,3.14,.17,4.97,.05,9.94,.05,14.91h-.02c0,5.12,0,10.24,0,15.35,0,1.34-.19,2.96,1.84,2.92,6.9-.16,13.93,1,20.7-.76,8.03-2.1,10.65-10.06,5.5-16.25Zm-17.32-11.53c2.39,.12,4.81-.06,7.2-.03,2.42,.05,4.66,.57,4.73,3.59,.05,3.22-2.27,3.42-4.69,3.36-1.19-.03-2.39,0-3.6,0v-.04c-1.2,0-2.41-.09-3.61,.02-2.51,.24-3.79-.32-3.75-3.34,.04-2.89,1.11-3.68,3.71-3.55Zm8.94,21.2c-1.8,.1-3.61,.02-5.41,.02v.14c-1.05,0-2.11-.09-3.15,.02-2.68,.28-4.1-.31-4.09-3.55,.02-3.19,1.05-4.29,4.17-4.02,2.84,.24,5.71,.06,8.57,.2,2.21,.1,3.86,1.18,3.77,3.58-.09,2.26-1.59,3.5-3.84,3.62Z"/>
      <path class="cls-1" d="M74.28,280.77c-.91-1.5-2.64-1.2-4.03-1.57-3.12-.82-6.44-1.64-6.88-5.44-.34-3.08,1.82-4.94,4.62-5.86,3.8-1.23,7.41-1.02,10.42,1.97,.66,.66,.98,1.55,.66,2.49-.43,1.31-1.66,.99-2.64,1.2-1.64,.35-2.22-1.36-3.46-1.74-1.29-.39-2.98-.85-3.52,.75-.58,1.68,1.32,1.57,2.3,1.94,1.4,.53,2.86,.87,4.28,1.36,2.43,.84,4.4,2.18,4.1,5.12-.27,2.67-1.88,4.36-4.48,4.99-1.45,.35-2.95,.52-3.92,.68-2.5-.02-4.42-.39-6.07-1.52-1.26-.87-2.66-2.2-1.84-3.61,.77-1.35,2.68-.91,4.13-.49,.41,.13,.76,.46,1.11,.72,1.46,1.08,2.98,1.36,4.63,.5,.6-.32,.92-.95,.6-1.48Z"/>
      <path class="cls-1" d="M80.21,260.02c-6.05,1.06-11.33-2.63-11.76-8.78-.3-4.47-.05-8.98-.05-13.48h-.2c0-4.35-.04-8.68,.02-13.03,.02-1.72-.38-3.9,2.67-3.26,2.1,.44,5.01-.77,4.86,3.34-.24,7.34-.09,14.69-.19,22.04-.05,3.66,.55,6.71,5.13,6.78,2.51,.05,1.75,1.87,1.79,3.24,.04,1.61-.21,2.8-2.28,3.15Z"/>
      <path class="cls-1" d="M109.22,271.12c.13,1.64,.04,3.31,.04,4.96-.06,0-.13,0-.18,0,0,2.56,0,5.11,0,7.66,0,1.52-.85,2.07-2.3,2.08-1.55,0-2.21-.71-2.13-2.2,.11-2.27,.02-4.11-3.19-4.08-2.52,.03-4.1,.33-3.72,3.36,.21,1.64-.11,2.87-2.36,2.81-2.21-.05-2.37-1.27-2.36-2.92,.02-3.76-.11-7.52,0-11.27,.05-1.53-1.03-3.82,2.17-3.82,2.84,0,2.49,1.88,2.6,3.68,.1,1.62-.74,3.52,2.29,3.87,3.61,.42,5.36-.21,4.73-4.25-.26-1.71-.54-3.74,2.37-3.74,3.24,0,1.94,2.33,2.06,3.86Z"/>
      <path class="cls-1" d="M109.58,236.88c-.21,2.08-.04,4.2-.04,6.31h.03c0,1.64,.06,3.3-.02,4.94-.36,8.04-4.94,12.58-12.73,12.66-7.69,.07-13.3-4.98-13.74-12.52-.19-3.44,.09-6.92-.23-10.35-.27-3.01,.47-4.1,3.75-4.16,3.51-.06,3.03,1.92,3.04,4.02,0,2.86,0,5.71,.12,8.56,.22,4.97,2.45,7.3,6.72,7.18,4.25-.12,5.8-2.02,5.86-7.24,.03-3.15,.13-6.32,0-9.46-.1-2.39,.78-3.24,3.16-2.96,2.02,.24,4.44-.51,4.08,3.01Z"/>
      <path class="cls-1" d="M127.43,269.85c-.15,2.24-.04,6.75-.04,6.75,0,0-.22,4.51-.2,6.76,.02,1.59-.46,2.53-2.32,2.5-1.9-.02-2.68-.73-2.67-2.67,.04-4.5,0-9.01-.14-13.51-.05-2.13,1.09-2.39,2.83-2.46,1.97-.07,2.68,.63,2.54,2.62Z"/>
      <path class="cls-1" d="M139.33,249.55c3.03,.14,3.59-1.19,3.37-3.74-.55-6.62-5.25-11.4-12.24-12.3-7.3-.94-13.54,2.3-15.43,8.04-2.05,6.24,.69,13.49,6.35,16.78,5.68,3.29,15.39,2.22,19.33-2.19,.67-.76,2.27-2.11,.29-2.74-2.23-.71-4.46-2.08-7.21-.37-4.26,2.64-8.02,1.44-11.25-3.05,.38-.31,.5-.49,.61-.49,5.39,0,10.79-.18,16.17,.05Zm-17.33-5.58c3.33-5.47,9.53-5.32,12.51,0h-12.51Z"/>
      <path class="cls-1" d="M284.06,249.55c3.03,.14,3.59-1.19,3.37-3.74-.55-6.62-5.25-11.4-12.24-12.3-7.3-.94-13.54,2.3-15.43,8.04-2.05,6.24,.69,13.49,6.35,16.78,5.68,3.29,15.39,2.22,19.33-2.19,.67-.76,2.27-2.11,.29-2.74-2.23-.71-4.46-2.08-7.21-.37-4.26,2.64-8.02,1.44-11.25-3.05,.38-.31,.5-.49,.61-.49,5.39,0,10.79-.18,16.17,.05Zm-17.33-5.58c3.33-5.47,9.53-5.32,12.51,0h-12.51Z"/>
      <path class="cls-1" d="M144.65,267.76c-5.63-.33-4.49,3.14-4.42,6.32,.02,.9,0,1.8,0,2.7,0,2.25,.04,4.51-.02,6.76-.03,1.5,.6,2.22,2.11,2.22,1.07,0,2.5,.13,2.39-1.27-.3-3.8,2.28-2.96,4.44-3.12,3.72-.27,6.22-2.95,6.14-6.43-.1-4.59-4.03-6.81-10.65-7.19Zm6.13,7.26c-.13,1.97-1.58,2.55-3.44,2.63-2.36,.12-2.7-1.22-2.54-2.95-.13-1.83,.19-3.14,2.39-2.69,1.76,.35,3.76,.58,3.6,3.01Z"/>
      <path class="cls-1" d="M180.87,269.96c-3.72-2.57-8.28-2.56-12.13-1.39-2.4,.73-.46,4.57-.87,6.98-.07,.43,0,.89,0,1.35h0c0,2.4,0,4.81,0,7.2-.02,1.49,.66,2.21,2.18,2.13,1.17-.06,2.85,.16,2.63-1.55-.47-3.78,1.94-3.54,4.42-3.72,3.19-.23,5.21-2.17,6.15-5.14,.78-2.49-.43-4.53-2.35-5.86Zm-5.37,7c-1.81,.17-2.91-.23-2.84-2.32,.05-1.41-.09-2.84,1.98-2.7,1.68,.12,3.36,.24,3.8,2.46-.08,1.82-1.22,2.41-2.95,2.57Z"/>
      <path class="cls-1" d="M170.52,257.95c-1.58-1.18-2.08-.66-3.27,.22-8.09,5.95-17.64,2.6-19.93-7.23-1.77-7.65-1.21-15.58-1.79-23.37-.2-2.62,1.58-2.55,3.25-2.4,1.84,.16,4.56-1.18,4.81,2.32,.22,3.1,.55,9.7,.55,9.7,0,0-.38,6.17-.04,8.35,.35,2.21,.55,3.96,.55,3.96,0,0,2.96,3.8,5.45,3.56,2.98-.28,4.96-2.05,5.46-5.14,1.01-6.28,.43-12.62,.43-18.93,0-2.84,.7-3.93,3.78-3.93,3.12,0,3.83,1.15,3.76,3.98-.15,5.72-.12,11.44,.02,17.16,.13,5.25,1.94,7.46,5.77,7.47,3.95,.02,7.37-3.1,7.57-7.46,.27-5.56,.17-11.14,.18-16.71,0-2.44-.46-4.56,3.51-4.55,3.79,0,4.45,1.32,4.54,4.65,.15,5.87,.14,11.73-.4,17.54-1.09,11.95-14.66,18-24.21,10.83Z"/>
      <path class="cls-1" d="M200.64,270.66c-.08,2.25-.03,10.42,0,12.37,.03,1.82-.67,2.79-2.65,2.79-1.93,0-2.68-.81-2.64-2.73,.1-4.21,.13-8.42,.07-12.63-.03-1.99,1.08-2.12,2.62-2.1,1.46,.02,2.66,.66,2.59,2.3Z"/>
      <path class="cls-1" d="M226.58,238.16c-.05-1.62,1.37-4.3-1.87-4.59-2.4-.22-5.38-1-5.17,3.7-3.41-2.77-6.51-4.46-10.37-4.05-5.38,.57-9.43,3.79-10.9,8.74-1.8,6.05,0,12.31,4.55,15.92,4.48,3.53,9.15,3.66,14.62,.48,.74-.43,1.87-2.47,2.42,.19,.64,3.07,3.06,1.81,4.75,1.83,2.63,.02,1.92-2.25,1.94-3.72,.1-6.16,.17-12.33,.02-18.49Zm-15.15,15.72c-4,.05-6.82-2.72-6.87-6.75-.05-3.86,2.91-7.04,6.63-7.14,4-.11,7.65,3.28,7.77,7.22,.11,3.75-3.11,6.6-7.54,6.67Z"/>
      <path class="cls-1" d="M218.28,276.8c0,2.37-.04,4.74,.02,7.1,.03,1.51-.53,2.21-2.12,2.11-1.31-.09-2.42-.23-2.4-1.92,.05-4.51,.06-9.02,.11-13.52,0-1.01,.4-1.73,1.56-1.77,1.64-.05,3.27-.3,4.38,1.47,1.58,2.52,3.32,4.94,5.95,7.27,0-2.14,.03-4.29-.02-6.43-.03-1.45,.43-2.21,2.03-2.27,1.83-.07,2.33,.74,2.34,2.41,0,3.76,.22,7.51,.21,11.27,0,1.23,.52,3.02-1.32,3.39-1.76,.36-3.52,.28-4.69-1.69-1.6-2.68-3.44-5.21-5.19-7.81-.28,.13-.57,.25-.86,.39Z"/>
      <path class="cls-1" d="M239.87,259.07c-3.86-8.29-7.44-16.7-11.17-25.17q7.17-1.17,9.81,4.88c1.66,3.8,3.35,7.57,5.38,12.15,1.9-4.38,3.44-7.91,4.95-11.45q2.68-6.34,10.25-5.68c-3.81,8.59-7.4,16.85-11.14,25.03-1.27,2.78-6.79,3.02-8.08,.23Z"/>
      <path class="cls-1" d="M244.94,283.41c-3.25-3.33-3.42-8.39-.39-11.82,3.23-3.65,10.64-4.34,14.46-1.31,.91,.72,2.31,1.45,1.81,2.8-.58,1.55-2.33,1.26-3.55,1.13-1.12-.12-2.12-1.12-3.25-1.38-2.59-.61-4.84,.09-6.1,2.58-1.1,2.19-.42,4.18,1.5,5.55,2.35,1.69,4.6,1.54,6.54-.52-.42-1.47-1.27-1.1-1.95-1.17-1.14-.12-2.12-.47-1.93-1.89,.18-1.4,1.31-1.44,2.38-1.48,.75-.03,1.54-.14,2.24,.03,1.74,.41,4.36-1.25,5.08,1.36,.66,2.42-.64,4.67-2.53,6.39-4.02,3.67-10.59,3.54-14.3-.26Z"/>
    </g>
  </g>
</svg>