<?xml version="1.0" encoding="UTF-8"?>
<svg id="Layer_2" data-name="Layer 2" xmlns="http://www.w3.org/2000/svg" viewBox="0 0 746.99 215.45">
  <defs>
    <style>
      .cls-1 {
        fill: #fff;
      }

      .cls-2 {
        fill: #02aef2;
      }

      .cls-3 {
        fill: #17a5e5;
      }
    </style>
  </defs>
  <g id="Layer_1-2" data-name="Layer 1">
    <g>
      <path class="cls-1" d="M132.64,22.29s.06-3.82,.14-4.82l-6.15-.12,.26-10.2h9.73c0,3.74,.11,11.23-.03,15.01-.12,2.83,1.07,4.06,3.8,4.83,17.94,5.05,38.04,11.18,55.88,16.56,1.44,.44,.62,4.98,.33,5.32l7.56,1.92c-.03-.53,.29-7.32,.41-8.64,.3-3.39-.98-5.08-4.54-5.74-5.06-.94-10.02-2.46-14.98-3.89-4.93-1.43-9.81-3.07-14.71-4.62l-27.4-6.45V.27l-21.15-.27-.15,21.72,11.02,.57Z"/>
      <path class="cls-2" d="M261.31,55.72c-1.54,0-3.17-.05-4.8,.01-15.89,.59-31.6-.62-47.19-3.91-2.8-.59-13.12-3.45-13.21-3.35-2.88-.92-5.76-1.83-8.65-2.75-2.88-.92-5.76-1.84-8.64-2.77-4.8-1.56-9.61-3.1-14.41-4.65-8.01-2.58-16.01-5.18-23.99-7.86-1.86-.63-15.34-2.55-15.34-2.55,0,0-3.17-.38-4.76-.35-10.86,.2-20.44,4.11-29.83,9-4.51,2.35-5.54,5.71-3.67,10.78,1.48-.53,2.59-.86,3.65-1.32,17.75-7.67,35.67-7.21,53.64-.93,11.31,3.94,22.55,8.12,33.83,12.15,24.58,8.79,49.9,11.52,75.8,9.07,7.22-.68,8.5-2.64,7.57-10.57Z"/>
      <path class="cls-1" d="M283.2,154.21c12.71-27.91,25.11-55.15,37.64-82.67-1.08-.23-1.71-.55-2.29-.47-18.48,2.34-36.96,4.7-55.43,7.17-1.12,.15-2.8,1.05-3.06,1.94-1.9,6.44-6.86,10.34-12.06,13.43-10.57,6.28-21.37,12.25-32.43,17.61-27.01,13.09-55.33,21.92-85.33,24.86l.16-.1c-8.03,1.38-16.09,2.58-24.08,4.18-18.12,3.63-36.14,7.84-54.33,11.04-10.07,1.77-20.42,1.97-30.65,2.88,.73,1.47,2.12,2.71,3.48,2.67,10.15-.3,20.4-.06,30.41-1.48,26.55-3.77,52.94-8.64,79.48-12.42,39.66-5.65,76.42-19.37,111-39.14,5.63-3.22,11.12-7.79,14.74-13.07,3.56-5.19,7.61-7.24,13.25-7.74,.82-.07,1.63-.35,2.45-.47,11.15-1.58,22.3-3.14,34.83-4.91-4.74,10.62-8.78,19.86-13.06,28.99-.51,1.09-2.19,1.89-3.49,2.32-5.69,1.88-11.45,3.56-17.17,5.33-29.26,9.01-58.52,18.04-87.79,27.03-1.98,.61-4.04,.94-6.06,1.4-.04-.32-4.02,.87-4.02,.87-1.21,.43-1.97,.75-2.75,.96-32.08,8.87-65.1,12.09-97.95,16.29-15.7,2.01-31.42,3.77-47.13,5.72-1.85,.23-3.63,.92-5.45,1.4,45.49-2.28,90.98-4.61,135.24-14.89,44.07-10.23,87.48-23.28,130.61-34.94-6.78,15.83-13.9,32.46-21.24,49.59h6.81c1.53-2.87,3.3-6.24,5.48-6.52,8.3-1.08,16.76-.83,25.13-1.42,4.28-.3,9.11-.23,11.5-7.18-12.32,3.5-23.85,4.73-36.46,1.77Z"/>
      <path class="cls-3" d="M277.3,168.04s.24-.45,.25-.47h-6.81s-.19,.44-.2,.46c-5.65-1.68-11.3-3.07-16.74-5.05-14.93-5.43-29.5-5.69-44.1,1.42-12.03,5.86-24.71,9.14-38.25,6.61-6.05-1.13-12.01-2.86-18.1-3.71-5.7-.79-11.76-1.96-17.23-.86-12,2.41-23.76,6.06-35.6,9.25,7.86-1.07,16.05-1.2,23.36-3.81,12.53-4.47,24.32-4.42,36.45,.55,18.56,7.61,36.48,5.4,53.95-3.71,3.81-1.99,7.84-3.7,11.95-4.94,8.42-2.53,16.45,.48,24.53,2.39,10.2,2.41,20.32,5.21,30.63,7.04,7.39,1.31,13.98-1.39,19.19-6.82-7.39,3.49-14.91,4.39-23.28,1.65Z"/>
      <path class="cls-2" d="M42.75,111.29c-.09-.5-.25-.98-.25-1.47-.27-13.91-.28-13.95,12.52-19.42,12.39-5.29,24.6-11.11,37.29-15.57,18.5-6.51,36.92-5.06,55.12,2.37,12.15,4.96,24.47,9.71,37.07,13.33,18.26,5.26,36.9,4.31,55.45,.87,1.1-.2,2.22-.27,3.47,0-8.21,6.96-17.64,11.48-27.97,14.11-18.13,4.62-35.98,3.13-53.6-2.82-8.51-2.88-17.01-5.84-25.64-8.31-18.16-5.19-36.11-2.36-53.65,2.84-13.35,3.96-26.31,9.25-39.8,14.08Z"/>
      <path class="cls-3" d="M99.37,175.84c8.4,3.47,16.82,1.92,24.96-.55,10.4-3.16,20.37-2.29,30.33,1.42,14.23,5.3,28.69,9.23,43.9,4.75,5.56-1.63,11.25-3.52,16.17-6.47,11.15-6.67,22.06-5.2,33.62-1.4,10.09,3.31,20.5,5.74,30.9,7.94,4.22,.89,8.78,.15,12.99,.15-6.14,4.86-13.53,8.61-22.1,8.28-7.27-.28-14.63-1.28-21.7-2.99-10.91-2.64-21.24-2.68-31.64,2.23-15.41,7.26-31.2,8.23-47.63,2.65-5.93-2.01-12.79-2.53-19.07-1.98-15.85,1.39-31.32,.02-46.48-4.49-21.56-6.42-42.93-5.84-64.6-.23-10.9,2.82-22.22,4.06-33.36,5.92-1.6,.27-3.29,.04-5.66,.04,20.03-10.91,41.12-17.95,62.4-18.53,12.34-.33,24.75,2.16,37.13,3.38,0,0-.15-.11-.15-.11Z"/>
      <path class="cls-2" d="M258,73.03c-1.01,9.05-1.2,9.03-9.14,10.8-29.6,6.58-57.85,1.59-85.5-9.45-8.95-3.57-17.98-7.11-27.23-9.74-19.24-5.48-37.54-.98-55.49,6.26-6.75,2.72-13.69,4.97-21.37,7.73-.61-3.68-1.33-6.53-1.44-9.41-.04-1.08,1.12-2.79,2.14-3.22,12.88-5.42,25.69-11.04,38.8-15.86,15.89-5.85,31.75-3.96,47.4,1.66,15.97,5.74,31.81,11.9,48.03,16.82,19.17,5.82,39,6.47,58.91,4.72,1.6-.14,3.2-.21,4.88-.31Z"/>
      <path class="cls-2" d="M15.96,127.52c7.01-1.56,13.99-2.45,20.5-4.71,15.88-5.52,31.31-12.36,47.32-17.42,24.15-7.63,48.34-8.66,72.16,2.4,11.77,5.47,24.43,7.66,37.47,7.28,.82-.02,1.65,.09,2.47,.18,.11,.01,.19,.22,.68,.8-8.95,5.91-18.56,9.94-29.23,9.45-8.76-.4-17.64-1.6-26.13-3.76-32.29-8.18-62.73-2.15-92.47,10.82-6.4,2.79-12.82,5.68-19.48,7.67-7.82,2.34-8.98,1.34-11.37-6.36-.63-2.05-1.24-4.1-1.93-6.36Z"/>
      <path class="cls-3" d="M148.56,205.91c17.46-.08,34.91-.28,52.37-.56,4.96-.08,9.91-.54,15.09,.09-6.95,1.58-13.84,3.49-20.85,4.69-22.83,3.91-45.74,7.65-68.93,3.52-8.97-1.6-18.16-3.31-26.53-6.74-22.19-9.09-44.52-10.11-67.42-3.77-.88,.24-1.81,.29-1.82,.29,24.69-12.24,50.72-13.17,77.59-4.17,9.69,3.25,20.12,4.35,30.27,6.09"/>
      <path class="cls-2" d="M130.39,135.96c-16.44-1.35-31.95,3.5-47.74,6.83-14.63,3.08-29.44,5.28-44.2,7.68-2.12,.34-4.41-.37-6.62-.59-.19-.67-.39-1.34-.58-2.01,4.56-2.16,9.03-4.57,13.7-6.45,42.31-17.05,73.02-19.9,101.66-9.39-5.67,1.4-11.02,2.71-16.37,4.03,0,0,.15-.1,.15-.1Z"/>
    </g>
    <g>
      <path class="cls-2" d="M397.69,90.42c-1.56-1.87-1.13-2.54,.17-3.86,5.25-5.36,4.32-11.59,1.69-17.53-2.91-6.54-9.19-8.37-15.63-8.62-8.28-.32-16.59,.24-24.88,.14-3.62-.04-4.89,1.17-4.76,4.86,.27,7.68,.08,15.36,.08,23.05h-.03c0,7.91-.01,15.83,.01,23.73,.01,2.07-.29,4.58,2.85,4.51,10.67-.25,21.52,1.55,31.99-1.17,12.42-3.24,16.45-15.55,8.51-25.11Zm-26.78-17.82c3.7,.18,7.43-.1,11.13-.04,3.74,.07,7.21,.88,7.3,5.55,.08,4.97-3.51,5.28-7.25,5.2-1.84-.04-3.7-.01-5.56-.01v-.06c-1.86,0-3.73-.14-5.57,.03-3.88,.38-5.85-.49-5.8-5.17,.06-4.47,1.72-5.68,5.74-5.49Zm13.81,32.77c-2.78,.15-5.57,.03-8.37,.03v.21c-1.62,0-3.27-.14-4.87,.03-4.13,.43-6.34-.47-6.33-5.49,.03-4.93,1.62-6.63,6.44-6.22,4.39,.38,8.83,.1,13.24,.31,3.42,.15,5.96,1.83,5.82,5.53-.14,3.49-2.46,5.41-5.94,5.6Z"/>
      <path class="cls-1" d="M417.49,149.1c-1.41-2.32-4.08-1.86-6.23-2.43-4.82-1.27-9.96-2.53-10.63-8.41-.53-4.76,2.81-7.64,7.14-9.05,5.87-1.9,11.45-1.58,16.1,3.04,1.02,1.02,1.51,2.39,1.02,3.84-.67,2.03-2.57,1.54-4.08,1.86-2.54,.54-3.44-2.11-5.35-2.7-2-.6-4.61-1.31-5.45,1.16-.89,2.6,2.04,2.43,3.56,3,2.17,.82,4.43,1.34,6.62,2.1,3.76,1.3,6.8,3.37,6.34,7.92-.42,4.13-2.91,6.75-6.93,7.71-2.23,.54-4.55,.8-6.06,1.05-3.87-.03-6.83-.6-9.39-2.35-1.94-1.34-4.11-3.39-2.85-5.59,1.19-2.08,4.13-1.41,6.38-.75,.63,.2,1.17,.71,1.72,1.12,2.25,1.66,4.61,2.1,7.15,.77,.92-.49,1.42-1.47,.92-2.29Z"/>
      <path class="cls-1" d="M426.66,117.03c-9.34,1.63-17.52-4.06-18.17-13.58-.46-6.91-.08-13.88-.08-20.84h-.31c0-6.72-.06-13.42,.03-20.14,.03-2.65-.59-6.03,4.13-5.04,3.24,.68,7.74-1.19,7.51,5.17-.38,11.34-.14,22.71-.29,34.07-.07,5.66,.85,10.36,7.93,10.48,3.88,.07,2.71,2.89,2.77,5.01,.06,2.49-.32,4.33-3.52,4.87Z"/>
      <path class="cls-1" d="M471.5,134.2c.2,2.54,.06,5.11,.06,7.67-.1,0-.2,0-.28-.01,0,3.95,.01,7.89-.01,11.84-.01,2.35-1.31,3.2-3.56,3.21-2.39,0-3.41-1.1-3.3-3.39,.17-3.51,.03-6.36-4.93-6.3-3.9,.04-6.34,.52-5.75,5.2,.32,2.54-.17,4.44-3.65,4.34-3.42-.08-3.66-1.96-3.65-4.51,.03-5.81-.17-11.62,.01-17.42,.07-2.36-1.59-5.91,3.35-5.91,4.39,0,3.86,2.91,4.02,5.68,.15,2.5-1.15,5.43,3.53,5.98,5.57,.66,8.28-.32,7.3-6.56-.41-2.64-.84-5.78,3.66-5.78,5.01,0,3,3.6,3.18,5.96Z"/>
      <path class="cls-1" d="M472.05,81.28c-.32,3.21-.06,6.49-.06,9.75h.04c0,2.54,.1,5.1-.03,7.64-.56,12.43-7.64,19.44-19.68,19.57-11.89,.11-20.56-7.7-21.23-19.34-.29-5.32,.14-10.7-.35-15.99-.42-4.65,.73-6.34,5.8-6.42,5.42-.1,4.68,2.96,4.69,6.22,.01,4.41-.01,8.83,.18,13.23,.34,7.68,3.79,11.29,10.39,11.1,6.56-.18,8.97-3.13,9.05-11.19,.04-4.87,.2-9.76-.01-14.62-.15-3.7,1.2-5.01,4.89-4.58,3.11,.38,6.86-.78,6.31,4.65Z"/>
      <path class="cls-1" d="M499.65,132.23c-.24,3.46-.06,10.43-.06,10.43,0,0-.34,6.97-.31,10.45,.03,2.46-.71,3.91-3.59,3.87-2.93-.03-4.15-1.13-4.12-4.12,.06-6.96-.01-13.93-.22-20.88-.08-3.3,1.69-3.7,4.37-3.8,3.04-.11,4.15,.98,3.92,4.05Z"/>
      <path class="cls-1" d="M518.03,100.86c4.68,.21,5.55-1.84,5.21-5.78-.85-10.24-8.11-17.61-18.91-19.01-11.29-1.45-20.92,3.56-23.84,12.43-3.17,9.65,1.06,20.85,9.82,25.94,8.77,5.08,23.79,3.44,29.88-3.38,1.03-1.17,3.51-3.27,.45-4.23-3.45-1.1-6.89-3.21-11.15-.57-6.58,4.08-12.39,2.22-17.39-4.72,.59-.47,.77-.75,.95-.75,8.32-.01,16.68-.28,24.99,.08Zm-26.79-8.63c5.14-8.45,14.74-8.23,19.33,0h-19.33Z"/>
      <path class="cls-1" d="M741.72,100.86c4.68,.21,5.55-1.84,5.21-5.78-.85-10.24-8.11-17.61-18.91-19.01-11.29-1.45-20.92,3.56-23.84,12.43-3.17,9.65,1.06,20.85,9.82,25.94,8.77,5.08,23.79,3.44,29.88-3.38,1.03-1.17,3.51-3.27,.45-4.23-3.45-1.1-6.89-3.21-11.15-.57-6.58,4.08-12.39,2.22-17.39-4.72,.59-.47,.77-.75,.95-.75,8.32-.01,16.68-.28,24.99,.08Zm-26.79-8.63c5.14-8.45,14.74-8.23,19.33,0h-19.33Z"/>
      <path class="cls-1" d="M526.26,129c-8.7-.5-6.94,4.86-6.83,9.76,.03,1.4,.01,2.78,.01,4.18,0,3.48,.06,6.97-.03,10.45-.04,2.32,.92,3.44,3.27,3.44,1.65,.01,3.87,.2,3.7-1.96-.46-5.87,3.52-4.58,6.86-4.82,5.75-.42,9.61-4.55,9.48-9.93-.15-7.1-6.23-10.53-16.47-11.12Zm9.47,11.22c-.2,3.04-2.44,3.94-5.32,4.06-3.65,.18-4.18-1.89-3.92-4.55-.2-2.84,.29-4.85,3.69-4.16,2.72,.54,5.81,.89,5.56,4.65Z"/>
      <path class="cls-1" d="M582.24,132.4c-5.75-3.97-12.79-3.95-18.74-2.15-3.72,1.13-.71,7.07-1.34,10.78-.11,.67-.01,1.38-.01,2.08h-.01c0,3.72,.01,7.43-.01,11.13-.03,2.3,1.02,3.42,3.37,3.3,1.8-.1,4.4,.25,4.06-2.39-.73-5.84,3-5.48,6.83-5.75,4.93-.36,8.06-3.35,9.5-7.95,1.2-3.86-.67-7-3.63-9.05Zm-8.3,10.82c-2.79,.27-4.5-.35-4.39-3.59,.07-2.18-.14-4.39,3.06-4.18,2.6,.18,5.2,.38,5.88,3.8-.13,2.81-1.89,3.73-4.55,3.97Z"/>
      <path class="cls-2" d="M566.25,113.83c-2.44-1.83-3.21-1.02-5.06,.34-12.5,9.19-27.26,4.02-30.8-11.17-2.74-11.82-1.87-24.08-2.77-36.12-.31-4.05,2.44-3.94,5.03-3.72,2.85,.25,7.05-1.83,7.43,3.59,.34,4.79,.85,14.99,.85,14.99,0,0-.59,9.54-.06,12.91,.54,3.41,.85,6.12,.85,6.12,0,0,4.57,5.88,8.42,5.5,4.61-.43,7.67-3.17,8.44-7.95,1.56-9.71,.67-19.51,.67-29.26,0-4.39,1.09-6.08,5.84-6.08,4.82-.01,5.92,1.77,5.81,6.15-.24,8.84-.18,17.68,.03,26.52,.2,8.12,3,11.52,8.93,11.55,6.1,.03,11.4-4.79,11.7-11.52,.42-8.59,.27-17.22,.28-25.83,0-3.77-.71-7.05,5.42-7.04,5.85,0,6.87,2.04,7.01,7.18,.24,9.06,.21,18.13-.61,27.11-1.69,18.47-22.66,27.82-37.42,16.73Z"/>
      <path class="cls-1" d="M612.8,133.49c-.13,3.48-.04,16.1,0,19.12,.04,2.81-1.03,4.32-4.09,4.32-2.99-.01-4.13-1.26-4.08-4.22,.15-6.51,.2-13.02,.11-19.53-.04-3.07,1.66-3.28,4.05-3.24,2.25,.03,4.11,1.02,4.01,3.55Z"/>
      <path class="cls-1" d="M652.89,83.26c-.07-2.5,2.12-6.65-2.89-7.1-3.72-.34-8.31-1.55-7.99,5.71-5.27-4.29-10.06-6.9-16.03-6.26-8.31,.88-14.58,5.85-16.84,13.51-2.78,9.36-.01,19.02,7.04,24.61,6.93,5.46,14.14,5.66,22.6,.74,1.15-.67,2.89-3.81,3.74,.29,.99,4.75,4.73,2.79,7.35,2.82,4.06,.03,2.98-3.48,3-5.75,.15-9.53,.27-19.05,.03-28.58Zm-23.41,24.29c-6.19,.08-10.55-4.2-10.62-10.43-.07-5.96,4.5-10.88,10.25-11.03,6.19-.17,11.83,5.07,12.01,11.16,.17,5.8-4.8,10.2-11.65,10.31Z"/>
      <path class="cls-1" d="M640.05,142.97c0,3.66-.06,7.32,.03,10.98,.04,2.33-.82,3.41-3.28,3.25-2.03-.14-3.74-.36-3.72-2.98,.07-6.97,.1-13.94,.17-20.9,.01-1.56,.61-2.67,2.42-2.74,2.54-.08,5.06-.46,6.77,2.28,2.44,3.9,5.13,7.64,9.19,11.24,0-3.31,.04-6.63-.03-9.94-.04-2.23,.67-3.41,3.14-3.51,2.82-.11,3.6,1.15,3.62,3.73,.01,5.81,.34,11.61,.32,17.42-.01,1.9,.81,4.67-2.04,5.24-2.72,.56-5.43,.43-7.25-2.61-2.47-4.15-5.32-8.06-8.02-12.07-.43,.2-.88,.39-1.33,.6Z"/>
      <path class="cls-1" d="M673.42,115.57c-5.96-12.81-11.5-25.81-17.26-38.9q11.08-1.8,15.17,7.54c2.57,5.87,5.18,11.7,8.31,18.79,2.93-6.77,5.32-12.22,7.65-17.7q4.15-9.79,15.84-8.79c-5.89,13.28-11.44,26.04-17.22,38.69-1.96,4.3-10.49,4.67-12.49,.36Z"/>
      <path class="cls-1" d="M681.27,153.19c-5.03-5.15-5.28-12.96-.6-18.27,4.99-5.64,16.44-6.7,22.35-2.03,1.41,1.12,3.58,2.23,2.79,4.33-.89,2.39-3.6,1.94-5.49,1.75-1.73-.18-3.28-1.73-5.03-2.14-4.01-.94-7.49,.14-9.43,3.99-1.7,3.38-.66,6.45,2.32,8.58,3.63,2.61,7.11,2.37,10.11-.81-.64-2.28-1.96-1.7-3.02-1.82-1.76-.18-3.28-.73-2.99-2.92,.28-2.17,2.03-2.22,3.67-2.29,1.16-.04,2.37-.22,3.46,.04,2.68,.63,6.75-1.93,7.85,2.11,1.02,3.74-.99,7.22-3.91,9.87-6.22,5.67-16.37,5.48-22.1-.41Z"/>
    </g>
  </g>
</svg>